<svg
   xmlns:svg="http://www.w3.org/2000/svg"
   xmlns="http://www.w3.org/2000/svg"
   height="18"
   width="210"
   version="1.1"
   viewBox="0 0 210 18">
   <path
     style="fill:#000000;stroke-width:0"
     d="M 0,0 V 18 H 3 V 5.4 l 4.5,7.2 h 3.75 L 15.6,5.4 V 18 h 3 V 0 H 14.85 L 9.3,9.6 3.75,0 Z m 28.2,0 -7.35,18 h 9.597657 v -0.9 c 0,-1.5 -1.05,-2.7 -2.25,-2.7 h -2.25 L 30,4.5 35.55,18 H 39.3 L 31.95,0 Z m 9,0 v 3.6 h 7.35 V 18 H 48.3 V 3.6 h 7.35 V 2.85 C 55.65,1.2 54.75,0 53.55,0 Z M 57.9,0 V 3.6 H 70.5 V 7.2 H 57.9 V 18 h 3 v -7.2 h 6.75 l 3,7.2 h 3.75 l -3,-7.2 h 0.14941 c 1.5,0 2.7,-1.5 2.7,-3.3 V 3.6 C 74.25,1.5 73.05,0 71.55,0 Z M 77.25,0 V 18 H 81 V 0 Z m 6.6,0 7.05,9 -7.05,9 h 4.5 l 4.8,-6.15 4.8,6.15 h 4.5 L 95.4,9 102.45,0 h -4.5 L 93.15,6.15 88.35,0 Z m 31.2,0 v 3.45 c 0,0 0,0.1523437 0.1494,0.1523436 h 12.45 V 7.2 H 115.05 V 18 h 3 v -7.2 h 6.75 l 3,7.2 h 3.75 l -3,-7.05 c 0,0 0,-0.15 0.1494,-0.15 h 0.15234 c 1.5,0 2.69824,-1.5 2.69824,-3.3 V 3.6 c -0.14999,-2.1 -1.35,-3.6 -3,-3.6 z m 18.6,0 V 3.6 H 150 V 2.85 C 150,1.2 148.95,0 147.75,0 Z m 25.95,0 -7.35,18 h 9.6 v -0.9 c 0,-1.5 -1.05,-2.7 -2.25,-2.7 h -2.25 l 4.04942,-9.9 5.54883,13.5 h 3.75 L 163.35,0 Z m 13.34766,0 v 18 h 16.35 v -0.9 c 0,-1.35 -1.05,-2.7 -2.25,-2.7 h -10.35 V 0 Z m 18.6,0 v 18 h 3 V 5.4 l 4.35,7.2 h 3.75 l 4.5,-7.2 V 18 H 210 V 0 h -3.6 L 200.85,9.6 195.14942,0 Z M 133.64941,7.2 V 18 H 150 v -0.9 c 0,-1.5 -1.05,-2.7 -2.25,-2.7 H 137.4 V 10.8 H 150 V 9.75 c 0,-1.5 -1.05,-2.5517577 -2.25,-2.5517577 z" />
</svg>